<svg width="50" height="42" viewBox="0 0 50 42" fill="none" xmlns="http://www.w3.org/2000/svg">
<path fill-rule="evenodd" clip-rule="evenodd" d="M0.5 3.5C0.5 2.57174 0.868749 1.6815 1.52513 1.02513C2.1815 0.36875 3.07174 0 4 0H46C46.9283 0 47.8185 0.36875 48.4749 1.02513C49.1313 1.6815 49.5 2.57174 49.5 3.5C49.5 4.42826 49.1313 5.3185 48.4749 5.97487C47.8185 6.63125 46.9283 7 46 7H4C3.07174 7 2.1815 6.63125 1.52513 5.97487C0.868749 5.3185 0.5 4.42826 0.5 3.5ZM0.5 21C0.5 20.0717 0.868749 19.1815 1.52513 18.5251C2.1815 17.8687 3.07174 17.5 4 17.5H46C46.9283 17.5 47.8185 17.8687 48.4749 18.5251C49.1313 19.1815 49.5 20.0717 49.5 21C49.5 21.9283 49.1313 22.8185 48.4749 23.4749C47.8185 24.1313 46.9283 24.5 46 24.5H4C3.07174 24.5 2.1815 24.1313 1.52513 23.4749C0.868749 22.8185 0.5 21.9283 0.5 21ZM0.5 38.5C0.5 37.5717 0.868749 36.6815 1.52513 36.0251C2.1815 35.3687 3.07174 35 4 35H46C46.9283 35 47.8185 35.3687 48.4749 36.0251C49.1313 36.6815 49.5 37.5717 49.5 38.5C49.5 39.4283 49.1313 40.3185 48.4749 40.9749C47.8185 41.6313 46.9283 42 46 42H4C3.07174 42 2.1815 41.6313 1.52513 40.9749C0.868749 40.3185 0.5 39.4283 0.5 38.5Z" fill="#E6F4F1"/>
</svg>
