<svg width="70" height="70" viewBox="0 0 70 70" fill="none" xmlns="http://www.w3.org/2000/svg">
<path fill-rule="evenodd" clip-rule="evenodd" d="M10.5 17.5C10.5 16.5717 10.8687 15.6815 11.5251 15.0251C12.1815 14.3687 13.0717 14 14 14H56C56.9283 14 57.8185 14.3687 58.4749 15.0251C59.1313 15.6815 59.5 16.5717 59.5 17.5C59.5 18.4283 59.1313 19.3185 58.4749 19.9749C57.8185 20.6313 56.9283 21 56 21H14C13.0717 21 12.1815 20.6313 11.5251 19.9749C10.8687 19.3185 10.5 18.4283 10.5 17.5ZM10.5 35C10.5 34.0717 10.8687 33.1815 11.5251 32.5251C12.1815 31.8687 13.0717 31.5 14 31.5H56C56.9283 31.5 57.8185 31.8687 58.4749 32.5251C59.1313 33.1815 59.5 34.0717 59.5 35C59.5 35.9283 59.1313 36.8185 58.4749 37.4749C57.8185 38.1313 56.9283 38.5 56 38.5H14C13.0717 38.5 12.1815 38.1313 11.5251 37.4749C10.8687 36.8185 10.5 35.9283 10.5 35ZM10.5 52.5C10.5 51.5717 10.8687 50.6815 11.5251 50.0251C12.1815 49.3687 13.0717 49 14 49H56C56.9283 49 57.8185 49.3687 58.4749 50.0251C59.1313 50.6815 59.5 51.5717 59.5 52.5C59.5 53.4283 59.1313 54.3185 58.4749 54.9749C57.8185 55.6313 56.9283 56 56 56H14C13.0717 56 12.1815 55.6313 11.5251 54.9749C10.8687 54.3185 10.5 53.4283 10.5 52.5Z" fill="#E6F4F1"/>
</svg>
