<svg width="198" height="38" viewBox="0 0 198 38" fill="none" xmlns="http://www.w3.org/2000/svg">
<path d="M15.16 30.44C12.3067 30.44 9.8 29.84 7.64 28.64C5.50667 27.4133 3.84 25.7067 2.64 23.52C1.44 21.3333 0.84 18.7867 0.84 15.88C0.84 12.9467 1.42667 10.4 2.6 8.24C3.8 6.05333 5.48 4.36 7.64 3.16C9.8 1.96 12.3067 1.36 15.16 1.36C18.0133 1.36 20.5067 1.96 22.64 3.16C24.8 4.36 26.48 6.05333 27.68 8.24C28.88 10.4 29.48 12.9467 29.48 15.88C29.48 18.7867 28.88 21.3333 27.68 23.52C26.48 25.7067 24.8 27.4133 22.64 28.64C20.5067 29.84 18.0133 30.44 15.16 30.44ZM15.16 24.28C17.24 24.28 18.8667 23.5467 20.04 22.08C21.24 20.5867 21.84 18.52 21.84 15.88C21.84 13.24 21.2533 11.1867 20.08 9.72C18.9067 8.25333 17.2667 7.52 15.16 7.52C13.0533 7.52 11.4133 8.25333 10.24 9.72C9.06667 11.1867 8.48 13.24 8.48 15.88C8.48 18.52 9.06667 20.5867 10.24 22.08C11.4133 23.5467 13.0533 24.28 15.16 24.28ZM33.3456 30V10.32H40.2656V13C40.959 11.9867 41.8523 11.2133 42.9456 10.68C44.039 10.1467 45.2656 9.88 46.6256 9.88C48.9723 9.88 50.7056 10.5733 51.8256 11.96C52.9723 13.3467 53.5456 15.48 53.5456 18.36V30H46.4256V18.64C46.4256 17.44 46.2123 16.5867 45.7856 16.08C45.3856 15.5733 44.7856 15.32 43.9856 15.32C42.919 15.32 42.0656 15.6667 41.4256 16.36C40.7856 17.0267 40.4656 17.9333 40.4656 19.08V30H33.3456ZM65.3634 30.44C62.6434 30.44 60.6701 29.76 59.4434 28.4C58.2168 27.0133 57.6034 24.9333 57.6034 22.16V1.8H64.7234V21.92C64.7234 23.7867 65.5768 24.72 67.2834 24.72C67.5501 24.72 67.8168 24.7067 68.0834 24.68C68.3768 24.6533 68.6568 24.6133 68.9234 24.56L68.8434 30C67.7768 30.2933 66.6168 30.44 65.3634 30.44ZM72.1628 37.2L76.1228 28.64L68.0828 10.32H75.5628L79.8828 21.48L84.3628 10.32H91.4028L79.3628 37.2H72.1628ZM107.483 30.44C104.257 30.44 101.51 29.84 99.2434 28.64C97.0034 27.44 95.2968 25.76 94.1234 23.6C92.9501 21.44 92.3634 18.92 92.3634 16.04C92.3634 13.0533 92.9768 10.4667 94.2034 8.28C95.4568 6.06666 97.2434 4.36 99.5634 3.16C101.883 1.96 104.683 1.36 107.963 1.36C109.937 1.36 111.817 1.62667 113.603 2.16C115.39 2.66666 116.843 3.36 117.963 4.24L115.723 9.92C114.497 9.12 113.257 8.54667 112.003 8.2C110.75 7.82667 109.417 7.64 108.003 7.64C105.31 7.64 103.297 8.36 101.963 9.8C100.657 11.24 100.003 13.32 100.003 16.04C100.003 18.76 100.67 20.8133 102.003 22.2C103.337 23.5867 105.31 24.28 107.923 24.28C109.15 24.28 110.523 24.0933 112.043 23.72V19.28H106.403V14.12H118.043V28.28C116.55 28.9733 114.883 29.5067 113.043 29.88C111.203 30.2533 109.35 30.44 107.483 30.44ZM129.326 30.44C127.806 30.44 126.46 30.16 125.286 29.6C124.14 29.04 123.233 28.28 122.566 27.32C121.926 26.3333 121.606 25.2133 121.606 23.96C121.606 22.5467 121.98 21.4267 122.726 20.6C123.473 19.7467 124.673 19.1467 126.326 18.8C127.98 18.4267 130.18 18.24 132.926 18.24H134.446V17.68C134.446 16.72 134.193 16.04 133.686 15.64C133.206 15.24 132.366 15.04 131.166 15.04C130.153 15.04 129.033 15.2 127.806 15.52C126.58 15.84 125.38 16.3333 124.206 17L122.406 12.32C123.073 11.84 123.926 11.4133 124.966 11.04C126.006 10.6667 127.1 10.3867 128.246 10.2C129.393 9.98667 130.473 9.88 131.486 9.88C134.766 9.88 137.193 10.5867 138.766 12C140.366 13.4133 141.166 15.64 141.166 18.68V30H134.526V27.2C134.18 28.2133 133.553 29.0133 132.646 29.6C131.74 30.16 130.633 30.44 129.326 30.44ZM130.926 25.8C131.913 25.8 132.74 25.48 133.406 24.84C134.1 24.2 134.446 23.36 134.446 22.32V21.6H132.926C131.353 21.6 130.193 21.7733 129.446 22.12C128.726 22.44 128.366 22.96 128.366 23.68C128.366 24.2933 128.58 24.8 129.006 25.2C129.46 25.6 130.1 25.8 130.926 25.8ZM145.021 6.92V0.479999H152.501V6.92H145.021ZM145.221 30V10.32H152.341V30H145.221ZM156.471 30V10.32H163.391V13C164.084 11.9867 164.977 11.2133 166.071 10.68C167.164 10.1467 168.391 9.88 169.751 9.88C172.097 9.88 173.831 10.5733 174.951 11.96C176.097 13.3467 176.671 15.48 176.671 18.36V30H169.551V18.64C169.551 17.44 169.337 16.5867 168.911 16.08C168.511 15.5733 167.911 15.32 167.111 15.32C166.044 15.32 165.191 15.6667 164.551 16.36C163.911 17.0267 163.591 17.9333 163.591 19.08V30H156.471ZM188.568 30.44C186.755 30.44 185.075 30.2533 183.528 29.88C182.008 29.5067 180.715 28.9867 179.648 28.32L181.288 23.72C182.275 24.28 183.422 24.7467 184.728 25.12C186.035 25.4667 187.328 25.64 188.608 25.64C189.595 25.64 190.302 25.5067 190.728 25.24C191.155 24.9467 191.368 24.5733 191.368 24.12C191.368 23.72 191.222 23.4267 190.928 23.24C190.662 23.0267 190.275 22.8667 189.768 22.76L185.328 22.04C183.675 21.7733 182.395 21.1733 181.488 20.24C180.582 19.3067 180.128 18.0933 180.128 16.6C180.128 15.2133 180.515 14.0267 181.288 13.04C182.062 12.0267 183.142 11.2533 184.528 10.72C185.915 10.16 187.502 9.88 189.288 9.88C190.702 9.88 192.102 10.0533 193.488 10.4C194.875 10.72 196.088 11.2533 197.128 12L195.368 16.52C194.595 15.9867 193.635 15.5467 192.488 15.2C191.342 14.8267 190.315 14.64 189.408 14.64C188.315 14.64 187.542 14.8 187.088 15.12C186.635 15.4133 186.408 15.7733 186.408 16.2C186.408 16.92 186.902 17.36 187.888 17.52L192.328 18.28C194.035 18.5467 195.342 19.1333 196.248 20.04C197.182 20.92 197.648 22.12 197.648 23.64C197.648 25.8 196.822 27.48 195.168 28.68C193.515 29.8533 191.315 30.44 188.568 30.44Z" fill="#12141D"/>
</svg>
