<svg width="241" height="46" viewBox="0 0 241 46" fill="none" xmlns="http://www.w3.org/2000/svg">
<path d="M17.7273 37.0371C14.2441 37.0371 11.1841 36.3047 8.54728 34.8398C5.94301 33.3423 3.90843 31.2589 2.44353 28.5895C0.97863 25.9202 0.24618 22.8113 0.24618 19.263C0.24618 15.6821 0.962354 12.5733 2.3947 9.93648C3.8596 7.2671 5.91046 5.19997 8.54728 3.73507C11.1841 2.27017 14.2441 1.53772 17.7273 1.53772C21.2105 1.53772 24.2543 2.27017 26.8585 3.73507C29.4954 5.19997 31.5462 7.2671 33.0111 9.93648C34.476 12.5733 35.2085 15.6821 35.2085 19.263C35.2085 22.8113 34.476 25.9202 33.0111 28.5895C31.5462 31.2589 29.4954 33.3423 26.8585 34.8398C24.2543 36.3047 21.2105 37.0371 17.7273 37.0371ZM17.7273 29.5173C20.2665 29.5173 22.2522 28.6221 23.6846 26.8317C25.1495 25.0087 25.8819 22.4858 25.8819 19.263C25.8819 16.0402 25.1658 13.5336 23.7334 11.7432C22.3011 9.95275 20.299 9.05754 17.7273 9.05754C15.1556 9.05754 13.1536 9.95275 11.7212 11.7432C10.2889 13.5336 9.57271 16.0402 9.57271 19.263C9.57271 22.4858 10.2889 25.0087 11.7212 26.8317C13.1536 28.6221 15.1556 29.5173 17.7273 29.5173ZM39.9274 36.5V12.4756H48.375V15.7472C49.2214 14.5102 50.3119 13.5662 51.6466 12.9151C52.9813 12.264 54.4788 11.9385 56.139 11.9385C59.0037 11.9385 61.1196 12.7849 62.4869 14.4777C63.8867 16.1704 64.5866 18.7747 64.5866 22.2905V36.5H55.8948V22.6323C55.8948 21.1674 55.6344 20.1257 55.1136 19.5072C54.6253 18.8886 53.8928 18.5794 52.9162 18.5794C51.6141 18.5794 50.5724 19.0026 49.7911 19.849C49.0098 20.6628 48.6192 21.7696 48.6192 23.1694V36.5H39.9274ZM79.0132 37.0371C75.6927 37.0371 73.2838 36.207 71.7863 34.5468C70.2889 32.854 69.5402 30.3149 69.5402 26.9293V2.07485H78.2319V26.6363C78.2319 28.9151 79.2736 30.0544 81.357 30.0544C81.6825 30.0544 82.0081 30.0382 82.3336 30.0056C82.6917 29.9731 83.0335 29.9242 83.359 29.8591L83.2614 36.5C81.9592 36.8581 80.5432 37.0371 79.0132 37.0371ZM87.3135 45.2894L92.1477 34.8398L82.3328 12.4756H91.4641L96.7377 26.0992L102.207 12.4756H110.801L96.1029 45.2894H87.3135Z" fill="white"/>
<path d="M130.431 37.0371C126.492 37.0371 123.139 36.3047 120.372 34.8398C117.638 33.3749 115.554 31.324 114.122 28.6872C112.69 26.0504 111.973 22.9741 111.973 19.4583C111.973 15.8124 112.722 12.6547 114.22 9.98531C115.75 7.28338 117.931 5.19997 120.763 3.73507C123.595 2.27017 127.013 1.53772 131.017 1.53772C133.426 1.53772 135.721 1.86325 137.902 2.51432C140.083 3.13283 141.857 3.97922 143.225 5.05348L140.49 11.9873C138.993 11.0107 137.479 10.3108 135.949 9.88765C134.419 9.4319 132.791 9.20403 131.066 9.20403C127.778 9.20403 125.32 10.083 123.693 11.8408C122.098 13.5987 121.3 16.1379 121.3 19.4583C121.3 22.7788 122.114 25.2854 123.741 26.9781C125.369 28.6709 127.778 29.5173 130.968 29.5173C132.466 29.5173 134.142 29.2894 135.998 28.8337V23.4136H129.113V17.1145H143.322V34.4003C141.499 35.2467 139.465 35.8978 137.219 36.3535C134.972 36.8093 132.71 37.0371 130.431 37.0371ZM157.096 37.0371C155.24 37.0371 153.596 36.6953 152.164 36.0117C150.764 35.3281 149.657 34.4003 148.844 33.2284C148.062 32.0239 147.672 30.6567 147.672 29.1267C147.672 27.4013 148.127 26.0341 149.039 25.0249C149.95 23.9832 151.415 23.2508 153.434 22.8276C155.452 22.3719 158.137 22.144 161.49 22.144H163.346V21.4604C163.346 20.2884 163.037 19.4583 162.418 18.97C161.832 18.4817 160.807 18.2376 159.342 18.2376C158.105 18.2376 156.738 18.4329 155.24 18.8235C153.743 19.2142 152.278 19.8164 150.846 20.6302L148.648 14.9171C149.462 14.3312 150.504 13.8103 151.773 13.3546C153.043 12.8988 154.378 12.557 155.777 12.3291C157.177 12.0687 158.496 11.9385 159.733 11.9385C163.737 11.9385 166.699 12.8012 168.62 14.5265C170.573 16.2518 171.549 18.97 171.549 22.6811V36.5H163.444V33.0819C163.02 34.3189 162.255 35.2955 161.149 36.0117C160.042 36.6953 158.691 37.0371 157.096 37.0371ZM159.049 31.3728C160.253 31.3728 161.263 30.9822 162.076 30.2009C162.923 29.4196 163.346 28.3942 163.346 27.1246V26.2457H161.49C159.57 26.2457 158.154 26.4573 157.242 26.8805C156.363 27.2711 155.924 27.9059 155.924 28.7849C155.924 29.5336 156.184 30.1521 156.705 30.6404C157.259 31.1287 158.04 31.3728 159.049 31.3728ZM176.255 8.32509V0.463457H185.386V8.32509H176.255ZM176.499 36.5V12.4756H185.191V36.5H176.499ZM190.232 36.5V12.4756H198.68V15.7472C199.526 14.5102 200.617 13.5662 201.951 12.9151C203.286 12.264 204.784 11.9385 206.444 11.9385C209.309 11.9385 211.424 12.7849 212.792 14.4777C214.192 16.1704 214.891 18.7747 214.891 22.2905V36.5H206.2V22.6323C206.2 21.1674 205.939 20.1257 205.418 19.5072C204.93 18.8886 204.198 18.5794 203.221 18.5794C201.919 18.5794 200.877 19.0026 200.096 19.849C199.315 20.6628 198.924 21.7696 198.924 23.1694V36.5H190.232ZM229.416 37.0371C227.202 37.0371 225.151 36.8093 223.263 36.3535C221.408 35.8978 219.829 35.263 218.527 34.4491L220.529 28.8337C221.733 29.5173 223.133 30.087 224.728 30.5427C226.323 30.9659 227.902 31.1775 229.465 31.1775C230.669 31.1775 231.532 31.0148 232.053 30.6892C232.573 30.3311 232.834 29.8754 232.834 29.322C232.834 28.8337 232.655 28.4756 232.297 28.2477C231.971 27.9873 231.499 27.792 230.881 27.6618L225.46 26.7828C223.442 26.4573 221.88 25.7248 220.773 24.5855C219.666 23.4461 219.113 21.9649 219.113 20.1419C219.113 18.4492 219.585 17.0006 220.529 15.7961C221.473 14.5591 222.791 13.615 224.484 12.9639C226.177 12.2803 228.114 11.9385 230.295 11.9385C232.02 11.9385 233.729 12.1501 235.422 12.5733C237.115 12.9639 238.596 13.615 239.865 14.5265L237.717 20.0443C236.773 19.3932 235.601 18.8561 234.201 18.4329C232.801 17.9772 231.548 17.7493 230.441 17.7493C229.106 17.7493 228.162 17.9446 227.609 18.3352C227.056 18.6933 226.779 19.1328 226.779 19.6536C226.779 20.5326 227.381 21.0697 228.586 21.265L234.006 22.1928C236.089 22.5183 237.684 23.2345 238.791 24.3413C239.93 25.4156 240.5 26.8805 240.5 28.736C240.5 31.3728 239.491 33.4237 237.473 34.8886C235.454 36.321 232.769 37.0371 229.416 37.0371Z" fill="url(#paint0_linear_21_42)"/>
<defs>
<linearGradient id="paint0_linear_21_42" x1="-8.23602" y1="19.7919" x2="254.457" y2="19.7919" gradientUnits="userSpaceOnUse">
<stop stop-color="#00B0F1"/>
<stop offset="1" stop-color="#0057B0"/>
</linearGradient>
</defs>
</svg>
